# xmcd
#
# Track frame offsets: 
#        150
#        18322
#        38476
#        59793
#        78145
#        101260
#        122212
#        142184
#        160446
#        183193
#
# Disc length: 2726 seconds
#
# Revision: 2
# Processed by: cddbd v1.5.2PL0 Copyright (c) Steve Scherf et al.
# Submitted via: ExactAudioCopy v0.95b4
#
DISCID=7f0aa40a
DTITLE=Jack Semple - Saskadelphia
DYEAR=1900
DGENRE=Blues
TTITLE0=I'm your Loverman
TTITLE1=Do what 'cha do best
TTITLE2=Broken in Two
TTITLE3=Down to the Mardi Gras
TTITLE4=Saskadelphia
TTITLE5=Hello Misery
TTITLE6=I can't stay away from you
TTITLE7=Poison or Medicine
TTITLE8=The Hog Report
TTITLE9=I gotta' keep it together
EXTD=
EXTT0=
EXTT1=
EXTT2=
EXTT3=
EXTT4=
EXTT5=
EXTT6=
EXTT7=
EXTT8=
EXTT9=
PLAYORDER=
